<svg width="145" height="144" viewBox="0 0 145 144" fill="none" xmlns="http://www.w3.org/2000/svg">
<rect x="0.5" width="144" height="144" rx="72" fill="white"/>
<path d="M35.53 77.5C35.53 77.536 35.602 77.512 35.746 77.428C35.89 77.332 36.016 77.152 36.124 76.888C36.244 76.612 36.304 76.216 36.304 75.7V66.862C36.304 66.37 36.244 65.998 36.124 65.746C36.016 65.482 35.89 65.302 35.746 65.206C35.602 65.11 35.53 65.08 35.53 65.116H42.046V66.916C41.83 66.196 41.182 65.836 40.102 65.836H37.6V70.948H40.696C40.936 70.948 41.14 70.912 41.308 70.84C41.476 70.756 41.602 70.672 41.686 70.588C41.77 70.504 41.818 70.45 41.83 70.426V72.172C41.818 72.148 41.77 72.094 41.686 72.01C41.602 71.926 41.476 71.848 41.308 71.776C41.152 71.704 40.954 71.668 40.714 71.668H37.6V76.78H40.408C40.948 76.78 41.41 76.672 41.794 76.456C42.19 76.228 42.472 75.94 42.64 75.592L42.316 77.5H35.53ZM52.6031 77.5C52.8191 77.464 52.9271 77.356 52.9271 77.176C52.9271 76.96 52.8371 76.72 52.6571 76.456C52.4771 76.18 52.3751 76.024 52.3511 75.988L49.8311 72.1L47.0051 75.88C46.8251 76.12 46.6811 76.336 46.5731 76.528C46.4771 76.708 46.4291 76.876 46.4291 77.032C46.4291 77.296 46.6211 77.452 47.0051 77.5H44.3051C44.3051 77.524 44.3771 77.494 44.5211 77.41C44.6651 77.326 44.8691 77.158 45.1331 76.906C45.4091 76.642 45.7391 76.252 46.1231 75.736L49.3991 71.398L46.5011 66.916C46.1651 66.4 45.8651 66.01 45.6011 65.746C45.3371 65.482 45.1211 65.308 44.9531 65.224C44.7851 65.128 44.7011 65.092 44.7011 65.116H47.7071C47.4791 65.164 47.3651 65.278 47.3651 65.458C47.3651 65.638 47.4971 65.932 47.7611 66.34L50.2631 70.228L52.8731 66.772C53.2451 66.28 53.4311 65.884 53.4311 65.584C53.4311 65.308 53.2511 65.152 52.8911 65.116H55.5731C55.5731 65.104 55.4951 65.134 55.3391 65.206C55.1951 65.266 55.0031 65.404 54.7631 65.62C54.5351 65.824 54.2711 66.13 53.9711 66.538L50.6951 70.912L53.5931 75.412C53.9771 76.012 54.3191 76.468 54.6191 76.78C54.9191 77.08 55.1591 77.284 55.3391 77.392C55.5191 77.488 55.6091 77.524 55.6091 77.5H52.6031ZM65.5419 68.464C65.5419 69.16 65.3739 69.784 65.0379 70.336C64.7139 70.876 64.2459 71.302 63.6339 71.614C63.0219 71.926 62.3019 72.082 61.4739 72.082C60.9699 72.082 60.4299 72.028 59.8539 71.92V75.844C59.8539 76.312 59.9139 76.672 60.0339 76.924C60.1539 77.164 60.2859 77.326 60.4299 77.41C60.5739 77.494 60.6459 77.524 60.6459 77.5H57.7839C57.7839 77.524 57.8559 77.494 57.9999 77.41C58.1439 77.326 58.2699 77.164 58.3779 76.924C58.4979 76.684 58.5579 76.324 58.5579 75.844V66.826C58.5579 66.346 58.4979 65.98 58.3779 65.728C58.2699 65.476 58.1439 65.308 57.9999 65.224C57.8559 65.128 57.7839 65.092 57.7839 65.116H61.3119C61.9239 65.116 62.4279 65.158 62.8239 65.242C63.2199 65.314 63.5679 65.428 63.8679 65.584C64.4079 65.86 64.8219 66.262 65.1099 66.79C65.3979 67.306 65.5419 67.864 65.5419 68.464ZM64.1559 68.698C64.1559 67.846 63.8919 67.156 63.3639 66.628C62.8359 66.1 62.1339 65.836 61.2579 65.836H59.8539V71.218C60.3699 71.314 60.9099 71.362 61.4739 71.362C62.3139 71.362 62.9679 71.122 63.4359 70.642C63.9159 70.15 64.1559 69.502 64.1559 68.698ZM68.4192 66.79C68.4192 66.31 68.3592 65.95 68.2392 65.71C68.1312 65.458 68.0052 65.29 67.8612 65.206C67.7172 65.122 67.6452 65.092 67.6452 65.116H70.5072C70.5072 65.092 70.4352 65.122 70.2912 65.206C70.1472 65.29 70.0152 65.458 69.8952 65.71C69.7752 65.95 69.7152 66.31 69.7152 66.79V76.78H72.6672C73.2072 76.78 73.6692 76.672 74.0532 76.456C74.4492 76.228 74.7312 75.94 74.8992 75.592L74.5752 77.5H67.6452C67.6452 77.536 67.7172 77.512 67.8612 77.428C68.0052 77.332 68.1312 77.152 68.2392 76.888C68.3592 76.612 68.4192 76.216 68.4192 75.7V66.79ZM76.0915 71.452C76.0915 70.18 76.3615 69.046 76.9015 68.05C77.4535 67.054 78.2215 66.28 79.2055 65.728C80.2015 65.176 81.3475 64.9 82.6435 64.9C83.7235 64.9 84.7315 65.14 85.6675 65.62C86.6155 66.088 87.3715 66.796 87.9355 67.744C88.5115 68.692 88.7995 69.832 88.7995 71.164C88.7995 72.436 88.5235 73.57 87.9715 74.566C87.4315 75.562 86.6635 76.336 85.6675 76.888C84.6835 77.44 83.5435 77.716 82.2475 77.716C81.1675 77.716 80.1535 77.482 79.2055 77.014C78.2695 76.534 77.5135 75.82 76.9375 74.872C76.3735 73.924 76.0915 72.784 76.0915 71.452ZM87.3595 71.434C87.3595 70.342 87.1315 69.358 86.6755 68.482C86.2315 67.594 85.6135 66.904 84.8215 66.412C84.0415 65.908 83.1595 65.656 82.1755 65.656C81.2755 65.656 80.4715 65.884 79.7635 66.34C79.0675 66.796 78.5215 67.444 78.1255 68.284C77.7295 69.112 77.5315 70.078 77.5315 71.182C77.5315 72.274 77.7535 73.264 78.1975 74.152C78.6535 75.028 79.2715 75.718 80.0515 76.222C80.8435 76.714 81.7315 76.96 82.7155 76.96C83.6155 76.96 84.4135 76.732 85.1095 76.276C85.8175 75.82 86.3695 75.178 86.7655 74.35C87.1615 73.51 87.3595 72.538 87.3595 71.434ZM94.8179 71.272C95.3699 71.272 95.8499 71.146 96.2579 70.894C96.6659 70.63 96.9719 70.294 97.1759 69.886C97.3919 69.466 97.4999 69.028 97.4999 68.572C97.4999 68.104 97.3979 67.666 97.1939 67.258C97.0019 66.838 96.7019 66.496 96.2939 66.232C95.8859 65.968 95.3879 65.836 94.7999 65.836H93.2699V75.844C93.2699 76.324 93.3299 76.69 93.4499 76.942C93.5699 77.182 93.7019 77.344 93.8459 77.428C93.9899 77.5 94.0619 77.524 94.0619 77.5H91.1999C91.1999 77.524 91.2719 77.494 91.4159 77.41C91.5599 77.326 91.6859 77.164 91.7939 76.924C91.9139 76.684 91.9739 76.324 91.9739 75.844V66.844C91.9739 66.352 91.9139 65.98 91.7939 65.728C91.6859 65.464 91.5599 65.29 91.4159 65.206C91.2719 65.11 91.1999 65.08 91.1999 65.116H94.7639C95.6999 65.116 96.4679 65.272 97.0679 65.584C97.6799 65.884 98.1179 66.28 98.3819 66.772C98.6579 67.252 98.7959 67.78 98.7959 68.356C98.7959 68.836 98.6819 69.31 98.4539 69.778C98.2259 70.234 97.8959 70.636 97.4639 70.984C97.0439 71.32 96.5519 71.554 95.9879 71.686L95.6999 71.74L98.8679 75.772C99.2879 76.24 99.6359 76.6 99.9119 76.852C100.188 77.104 100.386 77.272 100.506 77.356C100.638 77.44 100.716 77.488 100.74 77.5H98.6339L93.7379 71.272H94.8179ZM102.362 77.5C102.362 77.536 102.434 77.512 102.578 77.428C102.722 77.332 102.848 77.152 102.956 76.888C103.076 76.612 103.136 76.216 103.136 75.7V66.862C103.136 66.37 103.076 65.998 102.956 65.746C102.848 65.482 102.722 65.302 102.578 65.206C102.434 65.11 102.362 65.08 102.362 65.116H108.878V66.916C108.662 66.196 108.014 65.836 106.934 65.836H104.432V70.948H107.528C107.768 70.948 107.972 70.912 108.14 70.84C108.308 70.756 108.434 70.672 108.518 70.588C108.602 70.504 108.65 70.45 108.662 70.426V72.172C108.65 72.148 108.602 72.094 108.518 72.01C108.434 71.926 108.308 71.848 108.14 71.776C107.984 71.704 107.786 71.668 107.546 71.668H104.432V76.78H107.24C107.78 76.78 108.242 76.672 108.626 76.456C109.022 76.228 109.304 75.94 109.472 75.592L109.148 77.5H102.362Z" fill="#0B0D17"/>
</svg>
